# xmcd
#
# Track frame offsets:
# 150
# 15404
# 33505
# 49229
# 64032
# 82799
# 103093
# 119130
# 145297
# 163107
# 181569
# 201409
# 222903
# 242507
# 264491
# 280070
# 311332
#
# Disc length: 4395 seconds
#
# Revision: 1
# Processed by: cddbd v1.4PL0 Copyright (c) Steve Scherf et al.
# Submitted via: CedeCatalogueitor 2.5 http://usuarios.lycos.es/kakasboy
#
DISCID=ec112911
DTITLE=Barry White - The Ultimate Collection
DYEAR=97
DGENRE=
TTITLE0=You're The First,The Last,My Everything
TTITLE1=Can't Get Enough Of your love
TTITLE2=Let the music play
TTITLE3=Don't make me wait too long
TTITLE4=I'll do for you anything you want me to
TTITLE5=Show you right
TTITLE6=What I'm gonna do with you
TTITLE7=Come on
TTITLE8=I'm gonna love you just a little more babe
TTITLE9=Never never gonna give you up
TTITLE10=Baby we better try and get it together
TTITLE11=Just the way you are
TTITLE12=I'm qualified to satisfy you
TTITLE13=Dark and lovely
TTITLE14=You see the trouble with me
TTITLE15=It's ectasy when you lay down next to me
TTITLE16=The right night
EXTD=Music To Listen While You're Making Love 
EXTT0=
EXTT1=
EXTT2=
EXTT3=
EXTT4=
EXTT5=
EXTT6=
EXTT7=
EXTT8=
EXTT9=
EXTT10=
EXTT11=
EXTT12=
EXTT13=
EXTT14=
EXTT15=
EXTT16=
PLAYORDER=
